<svg xmlns="http://www.w3.org/2000/svg" width="32" height="32" version="1" id="food"><path fill="#5dc560" d="M32 16c0 8.836-7.164 16-16 16S0 24.836 0 16 7.164 0 16 0s16 7.164 16 16z"></path><path d="M19.867 31.477c.806-.202 1.61-.417 2.362-.735a15.953 15.953 0 0 0 5.084-3.43 15.953 15.953 0 0 0 4.363-8.088c.132-.643.15-1.324.201-1.994l-7.273-7.273c-.016-.015-.036-.023-.051-.037a1.311 1.311 0 0 0-.242-.172c-.046-.026-.087-.058-.135-.078-.02-.008-.04-.013-.06-.02a1.105 1.105 0 0 0-.36-.064c-.565 0-.967.403-1.21.887-.241.484-.403 1.049-.403 1.533 0 .128.014.25.037.371.005.03.014.06.021.09.017.071.039.14.063.207.06.169.137.324.236.463.018.024.038.045.057.068.041.053.08.11.127.156l.68.68c-.036.125-.072.248-.102.375L18.27 9.424c-.101-.101-.222-.181-.358-.236a1.188 1.188 0 0 0-.45-.086c-.08-.081-.161-.08-.161-.08-.121 0-.241.135-.26.271-.006.045 0 .09.02.13 0 .07.032.136.084.192.003.004.002.009.005.012l.02.02.74.74c-.074.18-.258.328-.447.328h-.08a.99.99 0 0 0-.416.098 1.274 1.274 0 0 0-.313.222l-1.611-1.611c-.1-.101-.223-.181-.36-.236a1.178 1.178 0 0 0-.447-.086c-.08-.081-.162-.08-.162-.08-.161 0-.323.24-.242.402 0 .066.033.13.082.185.005.006.003.013.008.018l.021.02.75.751a.466.466 0 0 1-.21.276.348.348 0 0 1-.167.04h-.162c-.264 0-.522.132-.728.321l-1.692-1.691c-.179-.18-.428-.28-.707-.303l-.02-.02h-.08l.014.014c-.185.03-.255.173-.255.389 0 .05.028.1.066.142.005.006.004.014.01.02l.758.758c-.084.162-.255.29-.43.29h-.082c-.646 0-1.13.565-1.13 1.13 0 .322.121.605.323.806l1.092 1.092c-.093.115-.226.2-.365.2-.162 0-.323.162-.323.324 0 .08.04.16.1.22l.908.908h-4.72c-.162 0-.321.241-.24.403.089.324.2.638.326.945.036.089.08.173.119.26.094.21.195.418.306.619.059.105.123.206.186.309a7.991 7.991 0 0 0 .57.814c.126.157.26.307.397.453.058.062.108.132.168.192l2.445 2.445v.902c0 .08.041.162.101.223l8.596 8.598z" opacity=".25"></path><path fill="#fff" d="M11.008 9.02c-.242 0-.322.162-.322.404 0 .162.242.323.403.242.242 0 .484.242.484.484s-.242.485-.484.485h-.08c-.646 0-1.13.564-1.13 1.13 0 .645.484 1.129 1.13 1.129.241 0 .403.242.403.484s-.242.484-.484.484a.347.347 0 0 0-.323.323c0 .161.161.322.323.322.645 0 1.13-.484 1.13-1.13 0-.645-.485-1.129-1.13-1.129h-.081c-.242 0-.484-.242-.484-.484s.242-.484.484-.484h.08c.646 0 1.13-.484 1.13-1.13 0-.645-.484-1.13-1.13-1.13h.081zm3.066 0c-.161 0-.322.243-.242.404 0 .162.162.323.404.323.242 0 .484.242.484.484s-.162.484-.404.484h-.161c-.565 0-1.13.565-1.13 1.13 0 .645.485 1.13 1.13 1.13.242 0 .484.241.484.483s-.242.485-.484.485a.347.347 0 0 0-.323.322c0 .162.162.323.323.323.645 0 1.13-.484 1.13-1.13 0-.645-.485-1.13-1.13-1.13h-.08c-.243 0-.485-.241-.485-.483s.242-.484.484-.484h.161c.646 0 1.13-.484 1.13-1.13 0-.645-.484-1.13-1.13-1.13-.08-.08-.16-.08-.16-.08zm3.228 0c-.162 0-.323.243-.242.404 0 .162.161.323.403.323.242 0 .484.242.484.484s-.242.484-.484.484h-.08c-.565 0-1.13.565-1.13 1.13 0 .645.484 1.13 1.13 1.13.241 0 .483.241.483.483s-.242.485-.484.485a.347.347 0 0 0-.322.322c0 .162.161.323.322.323.646 0 1.13-.484 1.13-1.13 0-.645-.484-1.13-1.13-1.13h-.08c-.242 0-.484-.241-.484-.483s.242-.484.484-.484h.161c.646 0 1.13-.484 1.13-1.13 0-.645-.484-1.13-1.13-1.13-.08-.08-.161-.08-.161-.08zm6.454.566c-.564 0-.968.403-1.21.887s-.403 1.049-.403 1.533c0 .888.565 1.614 1.29 1.775-.645 2.017-.483 4.357-.645 6.455v.08c0 .646.484 1.05.968 1.05.485 0 .969-.404.969-1.05v-.08c-.162-2.098.08-4.196-.646-6.455.726-.161 1.291-.887 1.291-1.775 0-.484-.161-1.049-.403-1.533-.242-.484-.646-.887-1.21-.887zM6.893 15.314c-.16 0-.322.242-.242.404.646 2.34 2.26 4.276 4.519 5.244V22.656c0 .162.161.323.322.323h5.81a.347.347 0 0 0 .322-.323v-1.694c2.098-.968 3.793-2.824 4.438-5.244.08-.162-.08-.404-.323-.404H6.893z"></path></svg>